<?xml version="1.0" encoding="UTF-8" standalone="no"?>
<svg
   width="158.461mm"
   height="97.565mm"
   viewBox="16.193705 -241.371948 158.460938 97.565186"
   version="1.1"
   id="svg22"
   sodipodi:docname="cards.svg"
   inkscape:version="1.4 (86a8ad7, 2024-10-11)"
   xmlns:inkscape="http://www.inkscape.org/namespaces/inkscape"
   xmlns:sodipodi="http://sodipodi.sourceforge.net/DTD/sodipodi-0.dtd"
   xmlns="http://www.w3.org/2000/svg"
   xmlns:svg="http://www.w3.org/2000/svg">
  <defs
     id="defs22" />
  <sodipodi:namedview
     id="namedview22"
     pagecolor="#ffffff"
     bordercolor="#000000"
     borderopacity="0.25"
     inkscape:showpageshadow="2"
     inkscape:pageopacity="0.0"
     inkscape:pagecheckerboard="0"
     inkscape:deskcolor="#d1d1d1"
     inkscape:document-units="mm"
     inkscape:zoom="1.233913"
     inkscape:cx="299.45386"
     inkscape:cy="184.37281"
     inkscape:window-width="1366"
     inkscape:window-height="697"
     inkscape:window-x="-8"
     inkscape:window-y="-8"
     inkscape:window-maximized="1"
     inkscape:current-layer="svg22" />
  <path
     transform="matrix(1,0,0,-1,0,0)"
     style="stroke:none;fill:#f9f9f9;fill-rule:evenodd"
     d="M156.052094,168.567383C156.052094,168.520065,157.540176,164.506409,159.358963,159.648163C161.17775,154.789917,162.665848,150.499451,162.665848,150.1138C162.665848,149.728149,162.419098,149.098938,162.117538,148.715561C161.61618,148.078201,161.406647,148.018509,159.670456,148.018509L157.771667,148.018509L157.771667,146.033966L157.771667,144.049423L158.664673,143.881882C159.155823,143.789749,160.432358,143.780518,161.50145,143.861374C163.697571,144.027466,165.178024,144.704895,166.11525,145.972549C166.574478,146.593704,174.453857,167.155411,174.654648,168.256607C174.683182,168.413086,173.699387,168.552277,172.24649,168.597351L169.7901,168.673538L169.430908,167.803696C169.233353,167.325287,168.314926,164.523666,167.389954,161.577881C166.464981,158.63208,165.646744,156.221375,165.571686,156.220734C165.496613,156.220093,164.505493,159.017181,163.369186,162.436493L161.303177,168.653427L158.677628,168.653427C157.233582,168.653427,156.052094,168.614716,156.052094,168.567383z"
     id="path1" />
  <path
     transform="matrix(1,0,0,-1,0,0)"
     style="stroke:none;fill:#f9f9f9;fill-rule:evenodd"
     d="M134.62352,159.394165L134.62352,150.115051L137.070602,150.191116L139.5177,150.267181L139.5177,159.394165L139.5177,168.521149L137.070602,168.597229L134.62352,168.673279L134.62352,159.394165z"
     id="path2" />
  <path
     transform="matrix(1,0,0,-1,0,0)"
     style="stroke:none;fill:#f9f9f9;fill-rule:evenodd"
     d="M42.34095,161.444427C42.423637,154.796249,42.473679,154.142151,42.984154,153.036224C44.006306,150.821777,45.730873,149.874695,48.746262,149.871841C50.990158,149.869705,52.310612,150.351273,53.604996,151.643784L54.729336,152.766495L54.729336,151.450699L54.729336,150.134918L57.110287,150.134918L59.491241,150.134918L59.491241,159.394165L59.491241,168.653427L56.995605,168.653427L54.499966,168.653427L54.416241,162.50264C54.325378,155.827759,54.226151,155.320801,52.8046,154.268677C52.275753,153.877274,51.668324,153.725235,50.63332,153.725235C48.94302,153.725235,48.014301,154.399155,47.587551,155.935379C47.443081,156.455444,47.324215,159.529755,47.323402,162.767181L47.32193,168.653427L44.786606,168.653427L42.251282,168.653427L42.34095,161.444427z"
     id="path3" />
  <path
     transform="matrix(1,0,0,-1,0,0)"
     style="stroke:none;fill:#f9f9f9;fill-rule:evenodd"
     d="M121.507164,168.287048C120.768044,167.942886,119.846741,167.259521,119.459831,166.768478L118.756371,165.875656L118.753433,167.274841L118.750504,168.674026L116.435684,168.597595L114.120872,168.521149L114.120872,159.394165L114.120872,150.267181L116.546196,150.191406L118.971527,150.115631L119.0653,156.143799C119.170959,162.935699,119.353615,163.769775,120.912201,164.577072C121.999672,165.14035,123.733238,165.203873,124.648842,164.713989C125.959129,164.012939,126.157906,162.893356,126.157906,156.214218L126.157906,150.134918L128.689804,150.134918L131.221695,150.134918L131.136902,157.476181C131.056915,164.39917,131.019638,164.877747,130.482605,165.875656C129.297394,168.077927,127.718201,168.919342,124.777512,168.915405C123.310867,168.913422,122.530266,168.763443,121.507164,168.287048z"
     id="path4" />
  <path
     transform="matrix(1,0,0,-1,0,0)"
     style="stroke:none;fill:#f9f9f9;fill-rule:evenodd"
     d="M98.776955,168.561127C96.413383,167.784134,95.02816,166.650497,94.293633,164.89209C93.469917,162.920166,93.558594,162.833328,96.396004,162.833328C98.726204,162.833328,98.909233,162.871552,98.909233,163.358246C98.909233,163.646957,99.23661,164.248306,99.636742,164.694565C100.235863,165.362762,100.621033,165.52977,101.819283,165.6409C104.301277,165.871078,105.887123,164.584717,105.419296,162.720764C105.183395,161.780838,104.109077,161.346237,101.129204,160.98526C95.264656,160.274826,93.353676,158.856323,93.353676,155.213516C93.353676,151.780411,95.524559,149.870361,99.426498,149.870361C101.817291,149.870361,103.596977,150.342865,104.873535,151.316544C105.723091,151.964539,105.787537,151.976959,105.787537,151.492767C105.787537,150.221985,105.969292,150.134918,108.621925,150.134918C110.922295,150.134918,111.116653,150.174118,110.916779,150.59787C110.796669,150.852509,110.635117,154.275131,110.557785,158.20369C110.422539,165.073944,110.393921,165.383926,109.808235,166.325851C109.398048,166.985535,108.707291,167.546768,107.691833,168.045441C106.327835,168.715256,105.882233,168.791565,103.009758,168.847351C100.940239,168.887543,99.466797,168.787903,98.776955,168.561127zM105.39846,156.31134C105.014465,153.75061,102.436226,152.396301,99.736771,153.337341C98.735397,153.686417,98.380127,154.266602,98.380127,155.552826C98.380127,156.902832,99.243492,157.675446,101.184113,158.062057C102.042717,158.233109,103.340446,158.515594,104.067963,158.689804L105.390709,159.006546L105.47802,158.215302C105.526039,157.780121,105.490242,156.92334,105.39846,156.31134z"
     id="path5" />
  <path
     transform="matrix(1,0,0,-1,0,0)"
     style="stroke:none;fill:#f9f9f9;fill-rule:evenodd"
     d="M70.12616,168.233429C69.370605,167.856918,68.526535,167.261673,68.250427,166.910675C67.974327,166.559662,67.67627,166.272476,67.588089,166.272476C67.499901,166.272476,67.42775,166.812836,67.42775,167.473251L67.42775,168.674026L65.11293,168.597595L62.798119,168.521149L62.798119,159.394165L62.798119,150.267181L65.223785,150.191406L67.64946,150.115631L67.737091,156.276062C67.83287,163.009964,67.949165,163.570175,69.456345,164.557709C70.30249,165.112137,72.045105,165.187286,72.940704,164.707977C74.143875,164.064056,74.306053,163.07254,74.306053,156.360336L74.306053,150.134918L76.806137,150.134918L79.306221,150.134918L79.385506,156.550262C79.462143,162.751495,79.485031,162.993988,80.071426,163.816101C81.154243,165.334198,83.802071,165.501343,85.044464,164.130035C85.505058,163.621643,85.561066,162.987991,85.681717,156.919922L85.813988,150.267181L88.27626,150.190918L90.738518,150.114655L90.657211,157.598328L90.575897,165.082001L89.852219,166.313049C88.812889,168.081024,87.058083,168.917984,84.390549,168.917984C82.091148,168.917984,80.596863,168.33345,79.393974,166.96344L78.638535,166.103043L77.687073,167.196808C76.057449,169.07016,72.722755,169.527359,70.12616,168.233429z"
     id="path6" />
  <path
     transform="matrix(1,0,0,-1,0,0)"
     style="stroke:none;fill:#f9f9f9;fill-rule:evenodd"
     d="M145.205521,171.298935L145.205521,168.653427L143.794586,168.653427C143.018585,168.653427,142.334045,168.604218,142.273422,168.544052C142.212799,168.483887,142.203537,167.710083,142.252838,166.824478L142.342468,165.214279L143.773987,165.214279L145.205521,165.214279L145.205933,159.195755C145.206421,152.197617,145.321838,151.733658,147.311844,150.730148C148.307785,150.227921,148.917542,150.134918,151.213959,150.134918L153.935684,150.134918L153.935684,152.082458L153.935684,154.029984L152.453384,154.00856C150.245026,153.976639,150.231979,154.012451,150.231979,160.10611L150.231979,165.214279L152.083832,165.214279L153.935684,165.214279L153.935684,166.933853L153.935684,168.653427L152.083832,168.653427L150.231979,168.653427L150.231979,171.298935L150.231979,173.944443L147.71875,173.944443L145.205521,173.944443L145.205521,171.298935z"
     id="path7" />
  <path
     transform="matrix(1,0,0,-1,0,0)"
     style="stroke:none;fill:#f9f9f9;fill-rule:evenodd"
     d="M134.62352,173.405411L134.62352,171.279083L137.070602,171.355148L139.5177,171.431213L139.594955,173.481476L139.672226,175.531738L137.147858,175.531738L134.62352,175.531738L134.62352,173.405411z"
     id="path8" />
  <path
     transform="matrix(1,0,0,-1,0,0)"
     style="stroke:none;fill:#f9f9f9;fill-rule:evenodd"
     d="M17.692297,162.833328L17.692297,150.134918L20.470076,150.134918L23.247852,150.134918L23.247852,155.696182L23.247852,161.257446L28.340446,161.185593L33.433037,161.113754L33.50457,155.615128L33.576103,150.116516L36.282349,150.191849L38.988594,150.267181L39.057297,162.89946L39.125999,175.531738L36.351624,175.531738L33.577248,175.531738L33.505142,170.70369L33.433037,165.875656L28.340446,165.803802L23.247852,165.731949L23.247852,170.631851L23.247852,175.531738L20.470076,175.531738L17.692297,175.531738L17.692297,162.833328z"
     id="path9" />
  <path
     transform="matrix(1,0,0,-1,0,0)"
     style="stroke:none;fill:#f9f9f9;fill-rule:evenodd"
     d="M83.036217,192.07605L83.036217,182.939148L85.55291,182.939148L88.069611,182.939148L88,192L87.930397,201.060837L85.483307,201.136902L83.036217,201.212967L83.036217,192.07605z"
     id="path10" />
  <path
     transform="matrix(1,0,0,-1,0,0)"
     style="stroke:none;fill:#f9f9f9;fill-rule:evenodd"
     d="M116.827621,201.447784C113.91758,200.958267,112.136726,199.473343,111.585487,197.076721C111.174919,195.291687,111.588318,193.825211,112.802628,192.759033C113.717522,191.95575,114.883286,191.532516,119.534172,190.315155C122.789642,189.463043,123.715416,188.314911,122.388069,186.775803C121.110542,185.294479,117.812813,185.397614,116.498131,186.960037C116.136406,187.389923,115.840446,187.970612,115.840446,188.250443C115.840446,188.715332,115.631958,188.759247,113.42466,188.759247L111.008873,188.759247L111.153351,187.682129C111.336952,186.313263,112.388878,184.716766,113.660172,183.877594C116.084496,182.277252,121.327385,181.939941,124.237709,183.197067C128.192291,184.905273,129.301086,189.647614,126.320351,192.104584C125.278168,192.963654,123.949547,193.438965,120.094872,194.331787C116.594612,195.142517,115.597771,196.212585,117.018906,197.633713C118.298325,198.913132,121.930237,198.298431,122.53344,196.700378L122.834755,195.9021L125.157707,195.9021C126.435326,195.9021,127.479996,195.991394,127.479179,196.100525C127.473297,196.892654,126.788254,198.450638,126.102386,199.231812C124.304077,201.279968,120.802917,202.116486,116.827621,201.447784z"
     id="path11" />
  <path
     transform="matrix(1,0,0,-1,0,0)"
     style="stroke:none;fill:#f9f9f9;fill-rule:evenodd"
     d="M99.880165,201.309341C99.069618,201.04982,98.174866,200.472672,97.433075,199.730881L96.263725,198.561539L96.263725,199.877319L96.263725,201.193115L93.882774,201.193115L91.501823,201.193115L91.501823,192.066132L91.501823,182.939148L93.989922,182.939148L96.47802,182.939148L96.574692,188.957672C96.679565,195.486633,96.823128,196.183395,98.257179,197.123016C99.256935,197.778091,101.046036,197.893799,102.060829,197.369019C103.525612,196.611557,103.671135,195.858185,103.671135,189.032303L103.671135,182.939148L106.184364,182.939148L108.697586,182.939148L108.697586,189.643127C108.697586,196.74353,108.537323,197.973251,107.404648,199.56395C106.176231,201.289093,102.488571,202.144501,99.880165,201.309341z"
     id="path12" />
  <path
     transform="matrix(1,0,0,-1,0,0)"
     style="stroke:none;fill:#f9f9f9;fill-rule:evenodd"
     d="M68.630211,201.457245C65.586548,200.90979,63.123337,198.883362,62.756924,196.625427L62.596615,195.637558L65.111389,195.637558L67.62616,195.637558L67.784859,196.431061C68.096512,197.989304,71.139908,198.873138,72.983307,197.940735C73.813744,197.520691,74.403412,196.326019,74.193359,195.48912C73.939301,194.476868,72.933342,194.027771,70.015518,193.624023C65.26635,192.966858,63.482815,192.18219,62.524067,190.328186C62.063232,189.437027,62.004757,186.336365,62.433037,185.501129C63.027569,184.341644,64.374893,183.20578,65.663322,182.777832C68.088257,181.972397,72.601349,182.70343,73.74321,184.086624C74.285172,184.743134,74.570602,184.621078,74.570602,183.732788L74.570602,182.939148L77.23172,182.939148C79.298393,182.939148,79.845032,183.013016,79.67881,183.269836C79.561096,183.451706,79.403992,186.814804,79.329689,190.743378C79.214508,196.833023,79.127335,198.009933,78.738441,198.725159C78.194351,199.725845,77.118446,200.535263,75.638245,201.05751C74.265121,201.541962,70.344566,201.765594,68.630211,201.457245zM74.222687,189.957184C73.931885,186.843109,72.814064,185.73349,69.988747,185.754333C68.687347,185.763931,68.341568,185.873322,67.753296,186.461609C66.255661,187.959229,67.16066,190.047241,69.544151,190.593475C70.198914,190.74353,71.448914,191.030823,72.32193,191.231918C73.194946,191.433014,74.015732,191.613693,74.145897,191.633423C74.278282,191.653488,74.312119,190.914886,74.222687,189.957184z"
     id="path13" />
  <path
     transform="matrix(1,0,0,-1,0,0)"
     style="stroke:none;fill:#f9f9f9;fill-rule:evenodd"
     d="M47.006004,201.367859C45.694805,200.998306,45.34436,200.784393,43.925289,199.487335C41.41119,197.189423,40.54454,192.077927,42.013542,188.211838C43.18417,185.130997,45.122768,183.711349,48.4198,183.520477C50.954544,183.373749,52.459141,183.861526,53.850334,185.281006L54.79612,186.246033L54.676338,184.100342C54.478249,180.552048,53.146332,179.098282,50.287148,179.309601C48.733616,179.424423,47.65728,180.059296,47.104439,181.186905C46.757889,181.893753,46.732399,181.899597,44.326664,181.824478C41.906269,181.748901,41.898941,181.746597,41.992355,181.088852C42.162674,179.889587,43.087486,178.446289,44.20377,177.637665C47.169319,175.489426,53.023308,175.426727,56.297829,177.508118C57.5611,178.311081,58.03421,178.875061,58.753624,180.435577C59.344013,181.716232,59.361031,181.988815,59.442654,191.470886L59.52634,201.193115L57.127838,201.193115L54.729336,201.193115L54.726398,199.936493L54.723469,198.679886L54.040115,199.547012C52.655128,201.304443,49.593204,202.097046,47.006004,201.367859zM52.133678,197.589279C53.658005,197.162079,54.966564,193.933594,54.625111,191.442398C54.149593,187.973129,50.902821,186.072418,48.353111,187.770676C46.960007,188.698578,46.395325,190.093216,46.399696,192.59523C46.40696,196.7556,48.525261,198.600555,52.133678,197.589279z"
     id="path14" />
  <path
     transform="matrix(1,0,0,-1,0,0)"
     style="stroke:none;fill:#f9f9f9;fill-rule:evenodd"
     d="M132.242554,203.970886L132.242554,201.193115L130.787537,201.193115L129.33252,201.193115L129.33252,199.473541L129.33252,197.753967L130.787537,197.753967L132.242554,197.753967L132.242554,191.885101C132.242554,186.514648,132.288483,185.921387,132.783356,184.899109C133.588577,183.235764,134.633911,182.822906,138.062668,182.814056L140.840454,182.80687L140.918182,184.724854L140.995911,186.642853L139.544281,186.642853C137.32251,186.642853,137.269012,186.787292,137.269012,192.786377L137.269012,197.753967L139.12088,197.753967L140.972717,197.753967L140.972717,199.473541L140.972717,201.193115L139.12088,201.193115L137.269012,201.193115L137.269012,203.970886L137.269012,206.748672L134.755798,206.748672L132.242554,206.748672L132.242554,203.970886z"
     id="path15" />
  <path
     transform="matrix(1,0,0,-1,0,0)"
     style="stroke:none;fill:#f9f9f9;fill-rule:evenodd"
     d="M83.036217,206.087296L83.036217,204.103165L85.549438,204.103165L88.062668,204.103165L88.062668,206.087296L88.062668,208.071411L85.549438,208.071411L83.036217,208.071411L83.036217,206.087296z"
     id="path16" />
  <path
     transform="matrix(1,0,0,-1,0,0)"
     style="stroke:none;fill:#f9f9f9;fill-rule:evenodd"
     d="M25.50481,207.608459C25.405479,207.353821,23.299377,201.790512,20.824589,195.245544C18.349798,188.700577,16.265902,183.250015,16.193705,183.133209C16.12151,183.016388,17.351776,182.954697,18.927633,182.996124L21.792828,183.071411L22.718752,185.716919L23.644678,188.362427L28.418793,188.434326L33.192905,188.506226L34.092552,185.722687L34.992195,182.939148L37.850185,182.939148C39.422077,182.939148,40.708168,183.000198,40.708168,183.074814C40.708168,183.183136,34.541199,199.77977,31.985172,206.550262L31.410896,208.071411L28.548155,208.071411C26.066902,208.071411,25.661346,208.009735,25.50481,207.608459zM30.174459,197.222595L31.677784,192.727509L28.432056,192.727509L25.186329,192.727509L26.770735,197.224854C27.642159,199.69841,28.426239,201.721191,28.513138,201.719955C28.600037,201.718719,29.34763,199.694916,30.174459,197.222595z"
     id="path17" />
  <path
     transform="matrix(1,0,0,-1,0,0)"
     style="stroke:none;fill:#f9f9f9;fill-rule:evenodd"
     d="M102.892365,233.856537C100.365936,233.148376,98.825859,231.550171,98.486008,229.283875C98.153641,227.06752,99.214432,225.273987,101.38826,224.376846C101.843575,224.188934,103.51075,223.712524,105.093086,223.318146C108.335304,222.51004,109.343781,222.068787,109.770447,221.271561C110.562637,219.791321,109.000282,218.39151,106.554176,218.389862C104.736099,218.388657,103.400284,219.165634,103.021194,220.444824L102.768066,221.298935L100.40699,221.298935L98.045914,221.298935L98.193733,220.196869C98.275032,219.590729,98.677612,218.620941,99.088356,218.041779C101.965607,213.984772,111.425255,213.998856,114.006348,218.063995C115.394463,220.250244,115.252869,222.864532,113.663017,224.40329C112.564705,225.466278,111.472427,225.916351,107.999222,226.737015C104.950165,227.457458,103.823425,227.927887,103.570923,228.585922C103.020233,230.020996,103.936302,230.82399,106.118225,230.818848C108.123421,230.814117,108.973488,230.428833,109.472847,229.298447L109.851273,228.441788L112.205505,228.441788L114.559731,228.441788L114.37458,229.301575C114.272743,229.774475,114.028305,230.476807,113.831398,230.862335C113.326599,231.850647,111.538383,233.314972,110.357635,233.706924C108.750412,234.240433,104.561455,234.324371,102.892365,233.856537z"
     id="path18" />
  <path
     transform="matrix(1,0,0,-1,0,0)"
     style="stroke:none;fill:#f9f9f9;fill-rule:evenodd"
     d="M71.981995,233.929413C70.954094,233.600037,68.850174,231.818085,68.615234,231.077881C68.29586,230.071609,68.090103,230.574646,68.178757,232.14502L68.268394,233.732788L65.863945,233.732788L63.459496,233.732788L63.459496,224.605804L63.459496,215.478821L65.972717,215.478821L68.485947,215.478821L68.485947,220.713776C68.485947,225.617126,68.523651,226.023361,69.081192,227.126984C69.965179,228.876831,71.069649,229.5,73.286972,229.5L75.099701,229.5L75.099701,231.880951L75.099701,234.261902L73.975372,234.234894C73.356979,234.220032,72.459961,234.082581,71.981995,233.929413z"
     id="path19" />
  <path
     transform="matrix(1,0,0,-1,0,0)"
     style="stroke:none;fill:#f9f9f9;fill-rule:evenodd"
     d="M48.50848,233.89447C45.808304,233.23822,43.976212,231.670654,43.347572,229.478714C43.205425,228.983078,43.089123,228.487488,43.089123,228.377396C43.089123,228.267319,44.210846,228.177246,45.581833,228.177246L48.074547,228.177246L48.381645,229.107773C48.783554,230.325562,49.779823,230.822754,51.818169,230.822754C53.177437,230.822754,53.532597,230.720779,54.079983,230.173401C54.982452,229.270935,54.968292,227.874512,54.049343,227.151657C53.675343,226.857468,52.812248,226.546997,52.131351,226.4617C46.872875,225.802979,44.693581,225.119171,43.658295,223.803009C41.89679,221.563629,42.409458,217.603256,44.651634,216.12944C47.083176,214.531158,51.655483,214.725006,54.196114,216.534088L54.950687,217.071411L55.125584,216.275116L55.300472,215.478821L57.820988,215.478821C60.12442,215.478821,60.323566,215.518707,60.133308,215.941788C60.018806,216.196411,59.857262,219.678558,59.774319,223.679886C59.604549,231.869827,59.605156,231.86731,57.535721,233.056C55.49894,234.225937,51.428104,234.60405,48.50848,233.89447zM54.729336,222.745468C54.729336,219.825836,53.440197,218.391724,50.814079,218.389862C49.311737,218.388809,48.017433,218.896408,47.750809,219.591217C47.377037,220.565247,47.596504,221.614227,48.326897,222.344604C48.912758,222.930466,49.478806,223.150909,51.038536,223.400665C52.122711,223.574265,53.307377,223.817749,53.671135,223.941757C54.034889,224.065765,54.421795,224.176605,54.530922,224.18811C54.640049,224.199585,54.729336,223.550415,54.729336,222.745468z"
     id="path20" />
  <path
     transform="matrix(1,0,0,-1,0,0)"
     style="stroke:none;fill:#f9f9f9;fill-rule:evenodd"
     d="M90.884537,240.69928C90.787537,240.602295,90.708168,238.492462,90.708168,236.010803C90.708168,231.864777,90.67498,231.546051,90.299149,232.082626C90.074188,232.403809,89.330139,232.995773,88.645706,233.398102C87.548378,234.043167,87.135513,234.129242,85.152618,234.12645C83.358719,234.123917,82.689926,234.008072,81.845741,233.553619C80.325546,232.735291,78.94281,231.194275,78.089722,229.367706C77.410774,227.914001,77.348953,227.524368,77.355103,224.738098C77.362885,221.220245,77.873184,219.526352,79.496567,217.629791C80.96772,215.911102,82.745178,215.116821,85.152618,215.102386C87.595985,215.087708,88.767639,215.478333,90.011604,216.72229L90.972725,217.683411L90.972725,216.581116L90.972725,215.478821L93.353676,215.478821L95.734627,215.478821L95.734627,228.177246L95.734627,240.875656L93.397766,240.875656C92.112488,240.875656,90.981537,240.796295,90.884537,240.69928zM87.979309,230.27681C90.404137,229.360657,91.497559,226.153168,90.681778,222.349304C89.93045,218.845993,86.251373,217.554688,83.853416,219.952637C82.685951,221.120102,82.242561,222.486053,82.242561,224.915253C82.242561,227.411255,83.117943,229.223251,84.702774,230.007721C85.940262,230.62027,86.868484,230.696503,87.979309,230.27681z"
     id="path21" />
  <path
     transform="matrix(1,0,0,-1,0,0)"
     style="stroke:none;fill:#f9f9f9;fill-rule:evenodd"
     d="M26.543764,241.035736C20.829895,239.647583,17.32826,234.716583,17.318665,228.044968C17.30686,219.838135,22.622368,214.551483,30.424551,215.010223C34.164459,215.230103,36.806698,216.599289,38.740776,219.319611C39.663177,220.617004,40.708168,223.43959,40.708168,224.633682C40.708168,225.259247,40.675415,225.267181,38.094074,225.267181L35.479977,225.267181L35.170677,224.038849C34.276142,220.486328,31.248039,218.775772,27.686569,219.811127C24.10672,220.851807,22.077068,225.362396,22.977186,230.276978C23.732212,234.399384,26.018579,236.642853,29.464785,236.642853C31.9659,236.642853,33.941086,235.455063,34.888306,233.381393L35.350929,232.368622L37.923313,232.323181L40.495697,232.277771L40.364952,233.251984C40.163036,234.7565,39.050186,236.923981,37.847633,238.154953C35.245899,240.818146,30.561768,242.011902,26.543764,241.035736z"
     id="path22" />
</svg>
